Coordinates
version=1
nRows=13
nColumns=38
inDegrees=no

Units are S.I. units (second, meters, Newtons, ...)
If the header above contains a line with 'inDegrees', this indicates whether rotational values are in degrees (yes) or radians (no).

endheader
time	pelvis_tilt	pelvis_list	pelvis_rotation	pelvis_tx	pelvis_ty	pelvis_tz	hip_flexion_r	hip_adduction_r	hip_rotation_r	knee_angle_r	ankle_angle_r	subtalar_angle_r	mtp_angle_r	hip_flexion_l	hip_adduction_l	hip_rotation_l	knee_angle_l	ankle_angle_l	subtalar_angle_l	mtp_angle_l	lumbar_extension	lumbar_bending	lumbar_rotation	arm_flex_r	arm_add_r	arm_rot_r	elbow_flex_r	pro_sup_r	wrist_flex_r	wrist_dev_r	arm_flex_l	arm_add_l	arm_rot_l	elbow_flex_l	pro_sup_l	wrist_flex_l	wrist_dev_l
0	3.02369	1.10492	1.63045	0.804122	1.76591	1.00578	0.574162	-0.188381	-0.0537554	1.08298	-0.386093	0	0	0.655341	0.0337337	-0.153983	0.364467	-0.0931044	0	0	0.473896	-0.0821555	0.04467	-0.0972398	-0.186219	0.297868	0.489804	1.5708	0	0	-0.224941	-0.324102	0.485251	0.572237	1.1052	0	0
0.01	3.03966	1.10127	1.61472	0.805551	1.75483	1.00846	0.599751	-0.164239	-0.0170153	1.08563	-0.355759	0	0	0.645249	0.0288367	-0.150895	0.360617	-0.0944107	0	0	0.481028	-0.0710115	0.0447523	-0.0980192	-0.182608	0.289688	0.459597	1.5708	0	0	-0.212221	-0.325254	0.493279	0.578931	1.10502	0	0
0.02	3.04957	1.10285	1.60339	0.805961	1.74308	1.01139	0.621539	-0.156191	-0.0121307	1.08921	-0.328478	0	0	0.627377	0.0234669	-0.157622	0.354905	-0.0961842	0	0	0.475437	-0.0668435	0.0499096	-0.0970512	-0.17427	0.274275	0.429121	1.5708	0	0	-0.200569	-0.333627	0.494095	0.598864	1.11078	0	0
0.03	3.05704	1.10531	1.59649	0.807161	1.73086	1.01417	0.640622	-0.152669	-0.0133345	1.08833	-0.302978	0	0	0.606938	0.0212512	-0.166716	0.346141	-0.0990426	0	0	0.473019	-0.0598749	0.0450547	-0.0983141	-0.170898	0.259593	0.405826	1.5708	0	0	-0.193419	-0.33491	0.489278	0.610561	1.11681	0	0
0.04	3.06932	1.10598	1.58745	0.808476	1.71847	1.01678	0.659251	-0.14854	-0.0192488	1.08154	-0.281346	0	0	0.587972	0.0181144	-0.172629	0.335667	-0.102826	0	0	0.473276	-0.0516371	0.0361733	-0.101551	-0.168911	0.244691	0.385681	1.5708	0	0	-0.188308	-0.335522	0.482702	0.622163	1.12335	0	0
0.05	3.08446	1.10549	1.57744	0.809818	1.70607	1.0192	0.677358	-0.144165	-0.0280859	1.07026	-0.258508	0	0	0.570638	0.0145388	-0.176255	0.324799	-0.107603	0	0	0.474844	-0.0429791	0.0247258	-0.105921	-0.167371	0.227288	0.367773	1.5708	0	0	-0.184858	-0.336079	0.473687	0.635113	1.13131	0	0
0.06	3.09831	1.10569	1.566	0.810822	1.69386	1.02156	0.694608	-0.137946	-0.0340823	1.05499	-0.233047	0	0	0.552456	0.00993226	-0.180216	0.313557	-0.11299	0	0	0.474978	-0.033819	0.0158272	-0.10989	-0.165661	0.206415	0.350906	1.5708	0	0	-0.181464	-0.336233	0.461344	0.648706	1.14245	0	0
0.07	3.11061	1.10635	1.55431	0.811647	1.68184	1.02389	0.710933	-0.130762	-0.0380439	1.03551	-0.211785	0	0	0.533246	0.00528421	-0.182898	0.301002	-0.117615	0	0	0.474032	-0.0244413	0.00879196	-0.113633	-0.164862	0.186985	0.335741	1.5708	0	0	-0.17654	-0.336716	0.451809	0.661177	1.15235	0	0
0.08	3.1234	1.1058	1.54365	0.812542	1.66994	1.02606	0.726975	-0.12397	-0.0434688	1.01156	-0.189487	0	0	0.515701	0.000982328	-0.185763	0.288407	-0.123333	0	0	0.474092	-0.0154833	0.000980039	-0.117458	-0.164335	0.166735	0.321384	1.56773	0	0	-0.171192	-0.337187	0.442744	0.673197	1.16325	0	0
0.09	3.13698	1.10306	1.53304	0.813443	1.65815	1.02792	0.743711	-0.11695	-0.0497291	0.9828	-0.167999	0	0	0.501201	-0.00372347	-0.190847	0.277169	-0.13007	0	0	0.476882	-0.00635829	-0.00709881	-0.121828	-0.164369	0.14783	0.30778	1.56172	0	0	-0.166131	-0.337624	0.434234	0.685117	1.1749	0	0
0.1	-3.13301	1.09953	1.52383	0.814362	1.64644	1.02956	0.759458	-0.110313	-0.056282	0.948663	-0.149491	0	0	0.487425	-0.00812407	-0.196102	0.265628	-0.137883	0	0	0.480569	0.00206007	-0.0156696	-0.126136	-0.164667	0.13207	0.294576	1.55489	0	0	-0.160776	-0.338134	0.426375	0.696531	1.18765	0	0
0.11	-3.12103	1.09499	1.51604	0.815177	1.63475	1.0309	0.774493	-0.103868	-0.0628333	0.909237	-0.13431	0	0	0.474658	-0.0119801	-0.200584	0.254234	-0.145464	0	0	0.48544	0.00958435	-0.0245906	-0.13072	-0.165191	0.118141	0.282892	1.54653	0	0	-0.156108	-0.339078	0.418069	0.708286	1.20136	0	0
0.12	-3.11021	1.08927	1.50951	0.815917	1.62313	1.0319	0.788853	-0.0975248	-0.0691567	0.864029	-0.122254	0	0	0.463133	-0.015247	-0.204098	0.242976	-0.15221	0	0	0.491544	0.0164683	-0.0335477	-0.135632	-0.16611	0.106176	0.27287	1.53737	0	0	-0.152045	-0.340092	0.408604	0.720409	1.21615	0	0
